<svg width="223" height="29" viewBox="0 0 223 29" fill="none" xmlns="http://www.w3.org/2000/svg">
<path d="M18.9576 17.3571H8.46594L6.53578 28.5918H0L4.81584 0.388812H22.9134L22.0153 5.63813H10.4725L9.36413 12.1271H19.8558L18.9576 17.3571Z" fill="#D70018"/>
<path d="M28.379 23.3618H39.7115L38.8134 28.5918H20.9451L25.7609 0.388812H32.3158L28.379 23.3618Z" fill="#D70018"/>
<path d="M83.4745 20.9599C83.7548 19.5007 82.9776 18.3708 81.143 17.5702L78.0089 16.253C73.6135 14.2514 71.5241 11.5267 71.7407 8.07877C71.8299 6.50333 72.365 5.10222 73.346 3.87544C74.327 2.63575 75.6838 1.6737 77.4165 0.989288C79.1492 0.304875 81.0411 -0.0244182 83.0923 0.00140874C85.8442 0.0530625 88.0546 0.86661 89.7236 2.44205C91.4053 4.01749 92.2335 6.12884 92.208 8.7761H85.7104C85.7486 7.69137 85.5193 6.82617 85.0225 6.1805C84.5383 5.52191 83.7357 5.1797 82.6145 5.15388C81.5189 5.12805 80.5506 5.38632 79.7097 5.92868C78.8689 6.47105 78.372 7.20066 78.2191 8.11751C77.9771 9.40886 78.9198 10.4678 81.0475 11.2942C83.1878 12.1207 84.7422 12.8309 85.7104 13.4249C88.7554 15.2716 90.1823 17.7639 89.9912 20.9018C89.8893 22.5289 89.3733 23.9559 88.4432 25.1826C87.5132 26.4094 86.22 27.3586 84.5638 28.0301C82.9203 28.7016 81.073 29.0244 79.0218 28.9986C77.5184 28.9727 76.1233 28.7338 74.8366 28.2819C73.5498 27.8299 72.4478 27.1713 71.5305 26.3061C69.6704 24.5628 68.7786 22.2707 68.855 19.4297L75.4099 19.4491C75.3334 20.8954 75.6074 21.993 76.2316 22.742C76.8559 23.4781 77.907 23.8461 79.3849 23.8461C80.4805 23.8461 81.3915 23.5943 82.1177 23.0907C82.8566 22.5741 83.3089 21.8639 83.4745 20.9599Z" fill="#D70018"/>
<path d="M114.739 28.5918H108.242L110.248 16.8147H100.712L98.6864 28.5918H92.1507L96.9665 0.388812H103.521L101.591 11.5848H111.146L113.058 0.388812H119.574L114.739 28.5918Z" fill="#D70018"/>
<path d="M143.978 20.9599C144.259 19.5007 143.481 18.3708 141.647 17.5702L138.513 16.253C134.117 14.2514 132.028 11.5267 132.244 8.07877C132.334 6.50333 132.869 5.10222 133.85 3.87544C134.831 2.63575 136.188 1.6737 137.92 0.989288C139.653 0.304875 141.545 -0.0244182 143.596 0.00140874C146.348 0.0530625 148.558 0.86661 150.227 2.44205C151.909 4.01749 152.737 6.12884 152.712 8.7761H146.214C146.252 7.69137 146.023 6.82617 145.526 6.1805C145.042 5.52191 144.239 5.1797 143.118 5.15388C142.023 5.12805 141.054 5.38632 140.213 5.92868C139.373 6.47105 138.876 7.20066 138.723 8.11751C138.481 9.40886 139.424 10.4678 141.551 11.2942C143.692 12.1207 145.246 12.8309 146.214 13.4249C149.259 15.2716 150.686 17.7639 150.495 20.9018C150.393 22.5289 149.877 23.9559 148.947 25.1826C148.017 26.4094 146.724 27.3586 145.068 28.0301C143.424 28.7016 141.577 29.0244 139.525 28.9986C138.022 28.9727 136.627 28.7338 135.34 28.2819C134.054 27.8299 132.951 27.1713 132.034 26.3061C130.174 24.5628 129.282 22.2707 129.359 19.4297L135.914 19.4491C135.837 20.8954 136.111 21.993 136.735 22.742C137.36 23.4781 138.411 23.8461 139.889 23.8461C140.984 23.8461 141.895 23.5943 142.621 23.0907C143.36 22.5741 143.813 21.8639 143.978 20.9599Z" fill="#D70018"/>
<path d="M168.994 23.3231H160.107L157.642 28.5918H150.438L165.172 0.388812H171.325L176.466 28.5918H169.663L168.994 23.3231ZM162.554 18.0738H168.325L167.102 8.34995L162.554 18.0738Z" fill="#D70018"/>
<path d="M186.155 23.3618H197.488L196.589 28.5918H178.721L183.537 0.388812H190.092L186.155 23.3618Z" fill="#D70018"/>
<path d="M218.337 16.6404H208.113L206.947 23.3618H219.044L218.146 28.5918H199.513L204.329 0.388812H223L222.102 5.63813H209.986L208.954 11.5848H219.197L218.337 16.6404Z" fill="#D70018"/>
</svg>
